<?xml version="1.0" encoding="UTF-8"?>
<svg version="1.1" viewBox="0 0 2048 1338" width="1280" height="1280" xmlns="http://www.w3.org/2000/svg">
<path transform="translate(381,58)" d="m0 0h65l251 1h1302l2 1v159l-3 2h-973l-680 1-12 3-31 11-14 7-10 9-12 13-14 19-10 19-6 19-2 13 1 11 4 15 8 16 9 13 9 10 7 7 16 12 21 13 25 13 27 11 37 13 24 10 24 11 20 10 24 14 21 13 17 13 12 9 11 9 13 12 18 18 9 11 11 15 12 20 8 17 7 19 5 22 3 23-1 23-4 29-7 28-9 26-9 20-9 17-11 18-14 19-12 14-8 9-8 7-13 11-17 12-18 11-23 12-23 9-27 8-26 5-27 3-19 1h-58l-1-11v-137l2-5 58-1 20-3 18-6 16-8 14-8 11-9 12-11 11-14 9-15 5-11 5-17 1-6v-14l-3-12-8-17-10-14-11-12-8-7-13-10-24-16-17-10-25-12-29-8-20-6-28-10-30-13-21-11-21-13-18-13-11-9-10-9-12-11-14-15-13-16-14-21-10-18-9-19-8-21-8-32-2-13v-22l5-36 6-26 10-28 12-25 10-16 10-14 13-16 9-11 11-11 11-9 15-12 15-11 21-13 14-8 20-9 24-9 26-8 28-6 29-4z" fill="#064C71"/>
<path transform="translate(1634,334)" d="m0 0h356l11 1v195l-3 21-3 10-8 17-15 25-14 23-13 21-15 25-13 21-16 26-17 28-28 46-5 4-181-1 1-5 87-145 15-26 13-21 10-17 13-21 17-29 27-45 2-6-238 1-10 2-16 9-17 12-11 9-22 22-8 10-11 16-9 16-10 21-7 21-5 21-1 8v38l5 25 7 21 8 17 11 18 13 16 14 14 13 10 16 10 19 10 21 8 22 5 14 2 169 1-2 5-7 11-14 24-27 45-17 28-27 45-2 1h-85l-25-3-28-5-25-7-26-9-20-9-21-11-19-12-14-10-13-11-11-9-15-14-7-8-11-13-12-16-10-15-12-21-11-22-8-20-8-24-7-28-4-25-2-23v-48l4-31 6-29 9-29 10-24 12-25 12-20 13-19 13-16 12-14 15-15 11-9 13-11 12-8 17-11 16-9 23-11 24-9 27-8 27-5z" fill="#064C71"/>
<path transform="translate(982,324)" d="m0 0h69l254 1 1 1v460l-1 1h-33l-40-1-74-1-2-3v-309l-144 1-56 1-16 3-17 6-21 10-14 9-12 9-14 12-7 7-9 11-11 15-15 29-7 19-6 26-2 14v27l3 20 7 25 8 19 10 19 12 17 12 13 11 11 11 9 21 14 17 9 21 8 18 5 17 3 11 1 112 1 2 2v138l-2 2-34 8-31 5-21 2h-42l-32-4-29-6-24-7-27-10-29-14-17-10-22-15-16-13-14-12-22-22-9-11-11-13-12-17-12-20-12-23-9-21-11-33-8-35-4-26v-21l-1-4v-12l2-33 4-26 6-26 6-20 9-25 14-29 12-20 12-18 9-12 12-14 11-12 9-9 11-9 12-10 17-12 18-11 18-10 20-9 25-9 22-6 25-5 24-3z" fill="#064C71"/>
<path transform="translate(1866,844)" d="m0 0h86l-2 6-9 14-9 16-24 40-17 28-19 32-14 23-4 2-19-1-65-1-1-2 7-11 12-19 14-24 31-51 10-17 9-15 12-19z" fill="#BAA27F"/>
<path transform="translate(281,1132)" d="m0 0h27l2 1v151l-2 1h-25l-6-5-40-60-23-35-2-1 1 3v98h-28l-2-2v-150h29l5 3 12 19 11 17 29 44 11 17v-100z" fill="#363536"/>
<path transform="translate(1718,1132)" d="m0 0h16l11 1 6 5 11 18 26 39 13 20 11 20v-103h29l1 1v151l-2 1-21 1-6-3-7-8-17-26-11-17-20-30-13-20v102l-1 1h-24l-3-3v-147zm95 104 1 2z" fill="#383637"/>
<path transform="translate(1554,1130)" d="m0 0h22l14 2 14 5 12 8 10 9 9 13 6 13 3 12 1 19-2 19-5 13-7 12-9 11-13 10-10 5-17 5-7 1h-19l-18-4-11-5-11-7-10-10-9-14-6-13-4-16v-22l3-12 6-15 9-13 9-9 15-10 14-5zm11 26-13 2-14 7-8 7-8 14-4 13-1 12 3 16 5 10 11 12 9 6 11 4h20l11-4 11-7 8-9 5-10 3-13v-19l-3-11-6-11-10-10-14-7-11-2z" fill="#383637"/>
<path transform="translate(182,844)" d="m0 0h63l10 1 1 3v147l-6 2h-67l-2-1-1-8v-139z" fill="#BAA27F"/>
<path transform="translate(1157,824)" d="m0 0h147l2 2v71l-2 1h-147l-1-2v-71z" fill="#BAA27F"/>
<path transform="translate(79,844)" d="m0 0h62l4 2v149l-1 1-38 1h-27l-1-2v-150z" fill="#BAA380"/>
<path transform="translate(1106,1132)" d="m0 0 28 1 1 1v41l-1 56-2 15-5 13-8 11-8 7-13 6-12 3-8 1h-15l-15-3-12-5-9-7-8-9-6-12-3-12-1-12v-94h30l1 1v99l3 12 5 7 10 5 11 2 13-1 12-6 4-5 4-8 1-8 1-96z" fill="#383738"/>
<path transform="translate(1157,935)" d="m0 0h23l47 1 78 1 1 1v57l-1 1-11 1h-136l-2-5v-55z" fill="#BAA280"/>
<path transform="translate(422,1130)" d="m0 0h25l16 4 13 7 3 4-1 7-8 17-2 1-10-5-7-4-9-3h-13l-9 3-6 7-1 8 4 6 8 6 19 9 16 8 11 8 8 10 4 9 1 13-2 11-6 11-10 11-10 5-14 4h-17l-15-3-14-5-11-6-5-5 1-7 7-9 4-6 3-1 8 4 10 6 10 3h17l8-4 4-5 1-8-5-9-9-6-23-10-16-9-8-7-7-11-3-10v-11l3-10 5-9 7-8 11-7 8-3z" fill="#383637"/>
<path transform="translate(1955,1130)" d="m0 0h26l12 3 14 7 6 5 1 3-6 9-6 12-6-1-14-8-7-2h-14l-10 4-5 6-1 7 6 8 8 6 27 12 14 8 8 8 7 14 1 6v13l-3 10-7 11-7 7-10 5-16 4h-16l-15-3-17-7-9-7-3-4 2-7 7-9 5-5 5 1 10 7 10 4 11 2 10-1 8-4 4-5 1-7-4-8v-2l-20-10-22-10-11-8-7-7-5-10-2-7v-14l5-13 7-9 11-8 12-5z" fill="#383637"/>
<path transform="translate(2e3 843)" d="m0 0h3l1 3v136l-8 12-4 9-3 2h-87l2-5 13-21 17-29 12-19 9-16 9-14 14-24 17-28z" fill="#BAA27F"/>
<path transform="translate(536,1132)" d="m0 0h125l4 2v23l-2 1h-48v50l-1 77h-28l-2-1v-126h-48l-1-25z" fill="#363537"/>
<path transform="translate(1195,1132)" d="m0 0h127l2 2v22l-2 2h-48v35l-1 92h-26l-2-1v-126h-49l-1-1-1-21z" fill="#363536"/>
<path transform="translate(821,1132)" d="m0 0h127l1 1v23l-3 2-47 1v23l-1 103h-24l-3-2-1-7v-118h-50v-25z" fill="#393739"/>
<path transform="translate(728,1132)" d="m0 0h17l11 1 2 3-1 148-1 1h-27l-2-3v-149z" fill="#363536"/>
<path transform="translate(1387,1132)" d="m0 0h26l4 1v66l-1 86h-26l-3-2-1-14v-67z" fill="#393738"/>
<path transform="translate(73,1132)" d="m0 0h18l11 1v151l-1 1h-26l-2-2-1-13v-90z" fill="#373637"/>
<path transform="translate(1993,561)" d="m0 0 1 2-8 16-12 21-10 16-17 28-8 13-12 20-26 42-17 28-28 46-2 1-2-3 1-4 3-4 3-7 8-11 3-7 10-16 6-9 5-7 3-3 4-10 12-20 4-6h2l2-5 8-16 7-11 11-18 14-24 10-17h2l2-7h2l2-5 6-9 7-10z" fill="#DFDAD1"/>
<path transform="translate(1927,673)" d="m0 0 1 2-12 20-12 19-34 56-14 23-2 1-2-3 1-4 3-4 3-7 8-11 3-7 10-16 6-9 5-7 3-3 4-10 12-20 4-6 4-3h2l2-5z" fill="#C0AA8A"/>
<path transform="translate(1927,673)" d="m0 0 1 2-12 20-12 19-13 21-4 2 2-5 5-9 4-10 12-20 4-6 4-3h2l2-5z" fill="#BCB7AB"/>
<path transform="translate(1865,769)" d="m0 0 1 4-3 9-7 11-2 1-2-3 1-4 3-4 3-7z" fill="#BDA685"/>
<path transform="translate(1898,717)" d="m0 0h3l-2 5-8 13-4 2 2-5 8-14z" fill="#E1D7C9"/>
<path transform="translate(1909,695)" d="m0 0 1 2-3 5-3 7-3 6 2-1-1 3-4 1-3 3 2-6 8-14z" fill="#BBA381"/>
<path transform="translate(1913,692)" d="m0 0 1 2-1 3h-2l-3 11-4 6-4 2 2-6 3-4 3-7 4-6z" fill="#F1EDE7"/>
<path transform="translate(1988,569)" d="m0 0 1 2-2 7-8 13-1-2 6-15z" fill="#A3947F"/>
<path transform="translate(1993,561)" d="m0 0 1 2-5 11-1-4-4 7h-2l2-5 6-8z" fill="#FDFDFD"/>
<path transform="translate(1917,689)" d="m0 0 1 2-9 15-1-3 3-6h2l1-5h2z" fill="#8D826E"/>
<path transform="translate(1871,764)" d="m0 0 1 3-6 9h-2l2-7z" fill="#F8F6F4"/>
</svg>
